<?xml version="1.0" encoding="utf-8"?>
<!-- Generator: Adobe Illustrator 19.0.0, SVG Export Plug-In . SVG Version: 6.00 Build 0)  -->
<svg version="1.1" xmlns="http://www.w3.org/2000/svg" xmlns:xlink="http://www.w3.org/1999/xlink" x="0px" y="0px" width="320px"
	 height="72px" viewBox="0 0 320 72" style="enable-background:new 0 0 320 72;" xml:space="preserve">
<style type="text/css">
	.st0{fill:#555555;}
	.st1{fill:#888888;}
</style>
<g id="logo">
	<g id="a_copy_2">
		<rect id="XMLID_32_" x="222" y="10.1" class="st0" width="4" height="20"/>
		<rect id="XMLID_31_" x="206" y="10.1" class="st0" width="4" height="20"/>
		<rect id="XMLID_30_" x="206" y="10.1" class="st0" width="20" height="4"/>
		<rect id="XMLID_29_" x="214" y="18" class="st0" width="4" height="8"/>
	</g>
	<g id="e">
		<rect id="XMLID_284_" x="182" y="10.1" class="st0" width="4" height="20"/>
		<rect id="XMLID_283_" x="182" y="26.1" class="st0" width="20" height="4"/>
		<rect id="XMLID_282_" x="182" y="18.1" class="st0" width="16" height="4"/>
		<rect id="XMLID_281_" x="182" y="10.1" class="st0" width="20" height="4"/>
	</g>
	<g id="k_copy">
		<rect id="XMLID_45_" x="158" y="10.1" class="st0" width="4" height="20"/>
		<rect id="XMLID_44_" x="158" y="18.1" class="st0" width="20" height="4"/>
		<rect id="XMLID_43_" x="174" y="20.1" class="st0" width="4" height="10"/>
		<rect id="XMLID_42_" x="168" y="10.1" class="st0" width="4" height="9.9"/>
		<rect id="XMLID_41_" x="168" y="10.1" class="st0" width="10" height="4"/>
	</g>
	<g id="a_copy">
		<rect id="XMLID_275_" x="102" y="10" class="st0" width="4" height="20"/>
		<rect id="XMLID_274_" x="86" y="10" class="st0" width="4" height="20"/>
		<rect id="XMLID_273_" x="86" y="10" class="st0" width="20" height="4"/>
		<rect id="XMLID_272_" x="94" y="18" class="st0" width="4" height="8"/>
	</g>
	<g id="a">
		<rect id="XMLID_104_" x="150" y="10" class="st0" width="4" height="20"/>
		<rect id="XMLID_103_" x="134" y="10" class="st0" width="4" height="20"/>
		<rect id="XMLID_102_" x="134" y="10" class="st0" width="20" height="4"/>
		<rect id="XMLID_101_" x="142" y="18" class="st0" width="4" height="8"/>
	</g>
	<g id="m">
		<rect id="XMLID_267_" x="110" y="10" class="st0" width="20" height="4"/>
		<rect id="XMLID_266_" x="110" y="10" class="st0" width="4" height="20"/>
		<rect id="XMLID_265_" x="118" y="10" class="st0" width="4" height="16"/>
		<rect id="XMLID_264_" x="126" y="10" class="st0" width="4" height="20"/>
	</g>
	<g id="k">
		<rect id="XMLID_14_" x="62" y="10" class="st0" width="4" height="20"/>
		<rect id="XMLID_15_" x="62" y="18" class="st0" width="20" height="4"/>
		<rect id="XMLID_16_" x="78" y="20" class="st0" width="4" height="10"/>
		<rect id="XMLID_17_" x="72" y="10" class="st0" width="4" height="9.9"/>
		<rect id="XMLID_18_" x="72" y="10" class="st0" width="10" height="4"/>
	</g>
	<g id="o_1_">
		<rect id="XMLID_258_" x="46" y="18" class="st0" width="4" height="4"/>
		<g id="XMLID_254_">
			<path id="XMLID_255_" class="st0" d="M38,10v20h20V10H38z M54,26H42V14h12V26z"/>
		</g>
	</g>
	<g id="t">
		<rect id="XMLID_8_" x="14" y="10" class="st0" width="20" height="4"/>
		<rect id="XMLID_9_" x="14" y="10" class="st0" width="4" height="12"/>
		<rect id="XMLID_10_" x="22" y="10" class="st0" width="4" height="20"/>
		<rect id="XMLID_11_" x="30" y="10" class="st0" width="4" height="8"/>
	</g>
</g>
<g id="baseline">
	<g id="XMLID_178_">
		<path id="XMLID_248_" class="st1" d="M96.8,57.5v-2.1h1.4v2.1H96.8z"/>
		<path id="XMLID_246_" class="st1" d="M101.1,57.5v-2.1h1.4v2.1H101.1z"/>
		<path id="XMLID_244_" class="st1" d="M105.4,57.5v-2.1h1.4v2.1H105.4z"/>
		<path id="XMLID_241_" class="st1" d="M114.4,44.4v-1.6h1.2v1.6H114.4z M114.4,57.5V47h1.2v10.4H114.4z"/>
		<path id="XMLID_239_" class="st1" d="M121.9,48c-1.6,0-2.5,0.6-2.5,1.8c0,0.5,0.2,0.9,0.5,1.1c0.4,0.2,1.2,0.4,2.5,0.7
			c1.3,0.2,2.2,0.5,2.7,0.9c0.5,0.4,0.8,1.1,0.8,2.2c0,1.1-0.3,1.8-1,2.3c-0.7,0.5-1.7,0.7-3,0.7c-0.8,0-1.8-0.1-3-0.3l-0.6-0.1
			l0.1-1.1c1.6,0.2,2.8,0.4,3.6,0.4c0.8,0,1.5-0.1,2-0.4c0.5-0.3,0.7-0.8,0.7-1.5c0-0.7-0.2-1.2-0.6-1.4c-0.4-0.2-1.2-0.4-2.5-0.6
			c-1.3-0.2-2.1-0.5-2.7-0.8c-0.5-0.4-0.8-1-0.8-2c0-1,0.4-1.7,1.1-2.2c0.7-0.5,1.6-0.7,2.6-0.7c0.8,0,1.9,0.1,3.1,0.3l0.6,0.1
			l0,1.1C124,48.1,122.8,48,121.9,48z"/>
		<path id="XMLID_235_" class="st1" d="M141.5,59c0,1.2-0.4,2-1.1,2.6c-0.8,0.5-1.9,0.8-3.5,0.8c-1.6,0-2.7-0.2-3.3-0.7
			c-0.6-0.5-0.9-1.3-0.9-2.5c0-0.6,0.1-1.1,0.4-1.4c0.3-0.4,0.7-0.8,1.3-1.2c-0.3-0.2-0.5-0.7-0.5-1.4c0-0.2,0.2-0.7,0.5-1.3
			l0.2-0.3c-1.1-0.5-1.7-1.5-1.7-3.1c0-2.4,1.3-3.5,3.8-3.5c0.7,0,1.3,0.1,1.9,0.2l0.3,0.1l3-0.1v1.1l-2.1,0
			c0.5,0.5,0.8,1.3,0.8,2.5c0,1.1-0.3,2-0.9,2.5c-0.6,0.5-1.6,0.8-3,0.8c-0.4,0-0.8,0-1.1-0.1c-0.3,0.7-0.4,1.1-0.4,1.3
			c0,0.5,0.1,0.7,0.4,0.8c0.3,0.1,1.1,0.2,2.4,0.2c1.3,0,2.3,0.2,2.9,0.6C141.2,57.1,141.5,57.9,141.5,59z M133.8,59.1
			c0,0.8,0.2,1.4,0.6,1.7c0.4,0.3,1.2,0.5,2.4,0.5s2.1-0.2,2.6-0.5c0.5-0.3,0.8-0.9,0.8-1.7s-0.2-1.3-0.6-1.6
			c-0.4-0.2-1.1-0.4-2.1-0.4l-2.4-0.1c-0.5,0.4-0.9,0.7-1,0.9C133.9,58.3,133.8,58.7,133.8,59.1z M134,50.3c0,0.9,0.2,1.5,0.6,1.9
			c0.4,0.4,1,0.6,2,0.6c0.9,0,1.6-0.2,2-0.5c0.4-0.4,0.6-1,0.6-1.9s-0.2-1.6-0.6-1.9c-0.4-0.4-1-0.6-2-0.6c-0.9,0-1.6,0.2-2,0.6
			C134.2,48.8,134,49.5,134,50.3z"/>
		<path id="XMLID_232_" class="st1" d="M150.5,56.4l0.6-0.1l0,1c-1.6,0.2-2.9,0.3-4,0.3c-1.5,0-2.6-0.5-3.1-1.3
			c-0.6-0.9-0.9-2.2-0.9-4c0-3.6,1.4-5.5,4.3-5.5c1.4,0,2.4,0.4,3.1,1.2c0.7,0.8,1,2,1,3.8l0,1h-7.1c0,1.3,0.2,2.2,0.7,2.8
			c0.4,0.6,1.2,0.9,2.3,0.9C148.4,56.5,149.5,56.5,150.5,56.4z M144.5,51.7h5.9c0-1.4-0.2-2.4-0.7-2.9c-0.5-0.6-1.2-0.9-2.2-0.9
			c-1,0-1.7,0.3-2.3,0.9C144.7,49.4,144.5,50.4,144.5,51.7z"/>
		<path id="XMLID_230_" class="st1" d="M159.3,48.1h-3.5v5.2c0,1.3,0.1,2.2,0.3,2.6c0.2,0.4,0.7,0.6,1.4,0.6l1.9-0.1l0.1,1.1
			c-0.9,0.1-1.6,0.2-2.1,0.2c-1.1,0-1.8-0.3-2.2-0.8c-0.4-0.5-0.6-1.5-0.6-3v-5.8h-1.5V47h1.5v-3.3h1.3V47h3.5V48.1z"/>
		<path id="XMLID_228_" class="st1" d="M166.6,48.1h-3.5v5.2c0,1.3,0.1,2.2,0.3,2.6c0.2,0.4,0.7,0.6,1.4,0.6l1.9-0.1l0.1,1.1
			c-0.9,0.1-1.6,0.2-2.1,0.2c-1.1,0-1.8-0.3-2.2-0.8c-0.4-0.5-0.6-1.5-0.6-3v-5.8h-1.5V47h1.5v-3.3h1.3V47h3.5V48.1z"/>
		<path id="XMLID_225_" class="st1" d="M168.5,44.4v-1.6h1.2v1.6H168.5z M168.5,57.5V47h1.2v10.4H168.5z"/>
		<path id="XMLID_223_" class="st1" d="M174.1,57.5h-1.2V47h1.2v0.8c1.2-0.7,2.3-1,3.4-1c1.4,0,2.3,0.4,2.8,1.1
			c0.5,0.7,0.7,2.1,0.7,4v5.5h-1.3V52c0-1.6-0.2-2.7-0.5-3.2c-0.3-0.6-1-0.8-2-0.8c-0.5,0-1,0.1-1.5,0.2c-0.5,0.1-0.9,0.3-1.2,0.4
			l-0.4,0.2V57.5z"/>
		<path id="XMLID_219_" class="st1" d="M192.5,59c0,1.2-0.4,2-1.1,2.6c-0.8,0.5-1.9,0.8-3.5,0.8c-1.6,0-2.7-0.2-3.3-0.7
			c-0.6-0.5-0.9-1.3-0.9-2.5c0-0.6,0.1-1.1,0.4-1.4c0.3-0.4,0.7-0.8,1.3-1.2c-0.3-0.2-0.5-0.7-0.5-1.4c0-0.2,0.2-0.7,0.5-1.3
			l0.2-0.3c-1.1-0.5-1.7-1.5-1.7-3.1c0-2.4,1.3-3.5,3.8-3.5c0.7,0,1.3,0.1,1.9,0.2l0.3,0.1l3-0.1v1.1l-2.1,0
			c0.5,0.5,0.8,1.3,0.8,2.5c0,1.1-0.3,2-0.9,2.5c-0.6,0.5-1.6,0.8-3,0.8c-0.4,0-0.8,0-1.1-0.1c-0.3,0.7-0.4,1.1-0.4,1.3
			c0,0.5,0.1,0.7,0.4,0.8c0.3,0.1,1.1,0.2,2.4,0.2c1.3,0,2.3,0.2,2.9,0.6C192.2,57.1,192.5,57.9,192.5,59z M184.8,59.1
			c0,0.8,0.2,1.4,0.6,1.7c0.4,0.3,1.2,0.5,2.4,0.5s2.1-0.2,2.6-0.5c0.5-0.3,0.8-0.9,0.8-1.7s-0.2-1.3-0.6-1.6
			c-0.4-0.2-1.1-0.4-2.1-0.4l-2.4-0.1c-0.5,0.4-0.9,0.7-1,0.9C184.9,58.3,184.8,58.7,184.8,59.1z M185,50.3c0,0.9,0.2,1.5,0.6,1.9
			c0.4,0.4,1,0.6,2,0.6c0.9,0,1.6-0.2,2-0.5c0.4-0.4,0.6-1,0.6-1.9s-0.2-1.6-0.6-1.9c-0.4-0.4-1-0.6-2-0.6c-0.9,0-1.6,0.2-2,0.6
			C185.1,48.8,185,49.5,185,50.3z"/>
		<path id="XMLID_216_" class="st1" d="M206.4,50.1v5.6c0.1,0.5,0.5,0.8,1.4,0.9l-0.1,1c-1.1,0-1.9-0.3-2.4-0.8
			c-1.3,0.6-2.6,0.9-3.9,0.9c-0.9,0-1.6-0.3-2.1-0.8c-0.5-0.5-0.7-1.3-0.7-2.3c0-1,0.2-1.7,0.7-2.2c0.5-0.5,1.3-0.8,2.3-0.9l3.5-0.4
			v-1c0-0.8-0.2-1.3-0.5-1.7s-0.8-0.5-1.4-0.5c-0.9,0-2,0.1-3.5,0.3l-0.6,0.1l-0.1-1c1.5-0.3,2.9-0.4,4-0.4c1.1,0,2,0.3,2.5,0.8
			C206.1,48.2,206.4,49,206.4,50.1z M199.8,54.5c0,1.4,0.6,2.1,1.7,2.1c0.5,0,1-0.1,1.6-0.2c0.6-0.1,1.1-0.2,1.4-0.4l0.5-0.2v-3.8
			l-3.4,0.4c-0.7,0.1-1.2,0.2-1.5,0.6C200,53.4,199.8,53.9,199.8,54.5z"/>
		<path id="XMLID_214_" class="st1" d="M215.4,57.5h-1.2V47h1.2v0.8c1.1-0.7,2.2-1,3.4-1c1.2,0,2,0.4,2.5,1.1
			c0.5-0.3,1.1-0.6,1.8-0.8c0.7-0.2,1.4-0.3,1.9-0.3c1.4,0,2.3,0.4,2.8,1.1c0.5,0.7,0.7,2.1,0.7,4.1v5.5h-1.2V52
			c0-1.6-0.1-2.7-0.4-3.2c-0.3-0.6-0.9-0.8-2-0.8c-0.5,0-1,0.1-1.5,0.2c-0.5,0.1-0.9,0.3-1.2,0.4l-0.4,0.2c0.2,0.5,0.3,1.6,0.3,3.2
			v5.4h-1.3v-5.4c0-1.6-0.1-2.7-0.4-3.3c-0.3-0.6-0.9-0.8-1.9-0.8c-0.5,0-1,0.1-1.5,0.2c-0.5,0.1-0.9,0.3-1.2,0.4l-0.4,0.2V57.5z"/>
		<path id="XMLID_211_" class="st1" d="M238.8,50.1v5.6c0.1,0.5,0.5,0.8,1.4,0.9l-0.1,1c-1.1,0-1.9-0.3-2.4-0.8
			c-1.3,0.6-2.6,0.9-3.9,0.9c-0.9,0-1.6-0.3-2.1-0.8c-0.5-0.5-0.7-1.3-0.7-2.3c0-1,0.2-1.7,0.7-2.2c0.5-0.5,1.3-0.8,2.3-0.9l3.5-0.4
			v-1c0-0.8-0.2-1.3-0.5-1.7c-0.3-0.3-0.8-0.5-1.4-0.5c-0.9,0-2,0.1-3.5,0.3l-0.6,0.1l-0.1-1c1.5-0.3,2.9-0.4,4-0.4
			c1.1,0,2,0.3,2.5,0.8C238.5,48.2,238.8,49,238.8,50.1z M232.3,54.5c0,1.4,0.6,2.1,1.7,2.1c0.5,0,1-0.1,1.6-0.2
			c0.6-0.1,1.1-0.2,1.4-0.4l0.5-0.2v-3.8l-3.4,0.4c-0.7,0.1-1.2,0.2-1.5,0.6C232.4,53.4,232.3,53.9,232.3,54.5z"/>
		<path id="XMLID_209_" class="st1" d="M243.3,57.5H242V42.4h1.2v9l1.8,0l3.2-4.3h1.4l-3.6,4.8l3.7,5.7h-1.5l-3.3-5l-1.8,0V57.5z"/>
		<path id="XMLID_206_" class="st1" d="M258.4,56.4l0.6-0.1l0,1c-1.6,0.2-2.9,0.3-4,0.3c-1.5,0-2.6-0.5-3.1-1.3
			c-0.6-0.9-0.9-2.2-0.9-4c0-3.6,1.4-5.5,4.3-5.5c1.4,0,2.4,0.4,3.1,1.2c0.7,0.8,1,2,1,3.8l0,1h-7.1c0,1.3,0.2,2.2,0.7,2.8
			c0.4,0.6,1.2,0.9,2.3,0.9C256.3,56.5,257.4,56.5,258.4,56.4z M252.4,51.7h5.9c0-1.4-0.2-2.4-0.7-2.9c-0.5-0.6-1.2-0.9-2.2-0.9
			c-1,0-1.7,0.3-2.3,0.9C252.6,49.4,252.4,50.4,252.4,51.7z"/>
		<path id="XMLID_203_" class="st1" d="M261.6,52.2c0-2,0.3-3.4,1-4.2c0.7-0.8,1.8-1.2,3.4-1.2s2.7,0.4,3.4,1.2c0.7,0.8,1,2.2,1,4.2
			s-0.3,3.4-0.9,4.2c-0.6,0.8-1.8,1.3-3.5,1.3c-1.7,0-2.9-0.4-3.5-1.3C261.9,55.6,261.6,54.2,261.6,52.2z M262.9,52.2
			c0,1.6,0.2,2.8,0.6,3.4c0.4,0.6,1.2,0.9,2.5,0.9c1.3,0,2.1-0.3,2.5-1c0.4-0.6,0.6-1.8,0.6-3.4c0-1.6-0.2-2.8-0.7-3.4
			c-0.4-0.6-1.2-0.9-2.4-0.9c-1.2,0-2,0.3-2.4,0.9C263.1,49.4,262.9,50.5,262.9,52.2z"/>
		<path id="XMLID_201_" class="st1" d="M271.9,47h1.4l2.6,9.3h0.8l2.7-9.3h1.3l-3,10.4h-2.7L271.9,47z"/>
		<path id="XMLID_198_" class="st1" d="M289.5,56.4l0.6-0.1l0,1c-1.6,0.2-2.9,0.3-4,0.3c-1.5,0-2.6-0.5-3.1-1.3
			c-0.6-0.9-0.9-2.2-0.9-4c0-3.6,1.4-5.5,4.3-5.5c1.4,0,2.4,0.4,3.1,1.2s1,2,1,3.8l0,1h-7.1c0,1.3,0.2,2.2,0.7,2.8
			c0.4,0.6,1.2,0.9,2.3,0.9C287.4,56.5,288.5,56.5,289.5,56.4z M283.4,51.7h5.9c0-1.4-0.2-2.4-0.7-2.9c-0.5-0.6-1.2-0.9-2.2-0.9
			c-1,0-1.7,0.3-2.3,0.9C283.7,49.4,283.4,50.4,283.4,51.7z"/>
		<path id="XMLID_196_" class="st1" d="M293.1,57.5V47h1.2v1.5c0.5-0.4,1.1-0.7,1.9-1c0.7-0.3,1.4-0.6,2.1-0.7v1.3
			c-0.6,0.1-1.2,0.3-1.9,0.6c-0.7,0.3-1.2,0.5-1.5,0.7l-0.5,0.3v7.8H293.1z"/>
	</g>
	<g id="XMLID_13_">
	</g>
	<g id="XMLID_20_">
	</g>
	<g id="XMLID_22_">
	</g>
	<g id="XMLID_23_">
	</g>
	<g id="XMLID_24_">
	</g>
	<g id="XMLID_60_">
	</g>
	<g id="XMLID_61_">
	</g>
	<g id="XMLID_62_">
	</g>
	<g id="XMLID_63_">
	</g>
	<g id="XMLID_64_">
	</g>
	<g id="XMLID_65_">
	</g>
	<g id="XMLID_66_">
	</g>
	<g id="XMLID_67_">
	</g>
	<g id="XMLID_68_">
	</g>
	<g id="XMLID_69_">
	</g>
</g>
</svg>
